<?xml version="1.0" encoding="utf-8"?>
<!-- Generator: Adobe Illustrator 17.0.0, SVG Export Plug-In . SVG Version: 6.00 Build 0)  -->
<!DOCTYPE svg PUBLIC "-//W3C//DTD SVG 1.1//EN" "http://www.w3.org/Graphics/SVG/1.1/DTD/svg11.dtd">
<svg version="1.1" id="图层_1" xmlns="http://www.w3.org/2000/svg" xmlns:xlink="http://www.w3.org/1999/xlink" x="0px" y="0px"
	 width="556px" height="764.801px" viewBox="0 0 556 764.801" enable-background="new 0 0 556 764.801" xml:space="preserve">
<g>
	<path fill="#505050" d="M556,272c0,5.332-0.133,10.398-0.398,15.199c-0.27,4.801-0.668,9.867-1.204,15.199
		c-4.796,44.27-14.531,86.801-29.199,127.602c-14.664,40.801-33.199,80-55.597,117.602C447.199,585.199,421.332,621.332,392,656
		c-29.332,34.668-61.066,68-95.199,100c-4.801,5.867-10.934,8.801-18.403,8.801c-8,0-14.398-2.934-19.199-8.801
		c-34.133-32-66-65.602-95.597-100.801C134,620,107.867,583.199,85.199,544.801c-22.664-38.403-41.332-78.266-56-119.602
		C14.535,383.867,5.066,340.801,0.801,296c0-4.266-0.133-8.266-0.403-12C0.133,280.266,0,276.266,0,272
		c0-37.332,7.332-72.535,22-105.602C36.668,133.332,56.535,104.535,81.602,80C106.668,55.465,136.133,36,170,21.602
		C203.867,7.199,240,0,278.398,0c38.403,0,74.403,7.199,108,21.602C420,36,449.332,55.465,474.398,80
		c25.067,24.535,44.934,53.332,59.602,86.398C548.668,199.465,556,234.668,556,272L556,272z M278.398,396.801
		c17.602,0,34.137-3.336,49.602-10c15.465-6.668,28.934-15.602,40.398-26.801c11.469-11.199,20.536-24.398,27.204-39.602
		c6.664-15.199,10-31.332,10-48.398s-3.336-33.199-10-48.398c-6.672-15.204-15.739-28.403-27.204-39.602
		c-11.468-11.199-24.933-20.133-40.398-26.801c-15.465-6.664-32-10-49.602-10c-17.597,0-34.132,3.336-49.597,10
		C213.332,163.867,199.734,172.801,188,184c-11.734,11.199-20.934,24.398-27.602,39.602c-6.664,15.199-10,31.332-10,48.398
		s3.336,33.199,10,48.398C167.066,335.602,176.266,348.801,188,360c11.734,11.199,25.332,20.133,40.801,26.801
		C244.266,393.465,260.801,396.801,278.398,396.801L278.398,396.801z M278.398,396.801"/>
</g>
</svg>
