<?xml version="1.0" encoding="utf-8"?>
<!-- Generator: Adobe Illustrator 17.0.0, SVG Export Plug-In . SVG Version: 6.00 Build 0)  -->
<!DOCTYPE svg PUBLIC "-//W3C//DTD SVG 1.1//EN" "http://www.w3.org/Graphics/SVG/1.1/DTD/svg11.dtd">
<svg version="1.1" id="图层_1" xmlns="http://www.w3.org/2000/svg" xmlns:xlink="http://www.w3.org/1999/xlink" x="0px" y="0px"
	 width="802.398px" height="803.199px" viewBox="0 0 802.398 803.199" enable-background="new 0 0 802.398 803.199"
	 xml:space="preserve">
<g>
	<path fill="#000" d="M402.398,201.602c27.735,0,53.735,5.199,78,15.597C504.668,227.602,525.867,241.867,544,260
		s32.398,39.332,42.801,63.602c10.398,24.265,15.597,50.265,15.597,78c0,27.73-5.199,53.863-15.597,78.398
		c-10.403,24.535-24.668,45.867-42.801,64c-18.133,18.133-39.332,32.398-63.602,42.801c-24.265,10.398-50.265,15.597-78,15.597
		c-27.73,0-53.73-5.199-78-15.597c-24.265-10.403-45.464-24.668-63.597-42.801c-18.133-18.133-32.403-39.469-42.801-64
		c-10.398-24.535-15.602-50.668-15.602-78.398c0-27.735,5.204-53.735,15.602-78c10.398-24.27,24.668-45.469,42.801-63.602
		s39.332-32.398,63.597-42.801C348.668,206.801,374.668,201.602,402.398,201.602L402.398,201.602z M802.398,351.199V452h-48
		c-5.332,39.465-16.664,76.535-34,111.199c-17.332,34.668-39.464,65.469-66.398,92.403c-26.934,26.933-57.602,49.199-92,66.796
		c-34.398,17.602-71.332,29.067-110.801,34.403v46.398h-100v-46.398c-39.465-5.867-76.265-17.735-110.398-35.602
		c-34.133-17.867-64.403-40.133-90.801-66.801c-26.398-26.664-48.266-57.199-65.602-91.597C67.066,528.398,56,491.465,51.199,452H0
		V351.199h52c5.867-38.398,17.602-74.265,35.199-107.597c17.602-33.336,39.602-63.071,66-89.204
		c26.403-26.132,56.403-47.73,90-64.796c33.602-17.067,69.602-28.536,108-34.403V0h100v54.398
		c38.934,5.336,75.336,16.668,109.199,34c33.868,17.336,64.137,39.067,90.801,65.204c26.668,26.132,48.801,56,66.403,89.597
		c17.597,33.602,29.332,69.602,35.199,108H802.398L802.398,351.199z M402.398,652.801c34.668,0,67.336-6.535,98-19.602
		c30.668-13.066,57.336-31.066,80-54c22.668-22.933,40.668-49.734,54-80.398c13.336-30.668,20-63.336,20-98
		c0-34.668-6.664-67.336-20-98c-13.332-30.668-31.332-57.336-54-80c-22.668-22.668-49.332-40.668-80-54
		c-30.664-13.336-63.332-20-98-20c-34.664,0-67.332,6.664-98,20c-30.664,13.332-57.464,31.332-80.398,54
		c-22.934,22.664-40.934,49.332-54,80c-13.066,30.664-19.602,63.332-19.602,98c0,34.668,6.536,67.332,19.602,98
		c13.066,30.664,31.066,57.465,54,80.398c22.934,22.934,49.734,40.934,80.398,54C335.066,646.266,367.734,652.801,402.398,652.801
		L402.398,652.801z M402.398,652.801"/>
</g>
</svg>
