<?xml version="1.0" encoding="utf-8"?>
<!-- Generator: Adobe Illustrator 17.0.0, SVG Export Plug-In . SVG Version: 6.00 Build 0)  -->
<!DOCTYPE svg PUBLIC "-//W3C//DTD SVG 1.1//EN" "http://www.w3.org/Graphics/SVG/1.1/DTD/svg11.dtd">
<svg version="1.1" id="图层_1" xmlns="http://www.w3.org/2000/svg" xmlns:xlink="http://www.w3.org/1999/xlink" x="0px" y="0px"
	 width="701.602px" height="500.801px" viewBox="0 0 701.602 500.801" enable-background="new 0 0 701.602 500.801"
	 xml:space="preserve">
<g>
	<path fill="#000" d="M13.602,76.801c-5.868-4.266-9.469-7.602-10.801-10c-1.336-2.403-2-6-2-10.801V41.602
		c0-12.27,3.332-22.27,10-30C17.465,3.867,28.535,0,44,0l613.602,0.801c16.531,0,28,3.465,34.398,10.398
		c6.398,6.934,9.602,16.535,9.602,28.801v16c0,4.801-0.536,8-1.602,9.602c-1.066,1.597-4.801,5.332-11.199,11.199L384.801,252
		c-4.801,2.668-10.934,5.734-18.403,9.199c-7.464,3.469-12.531,5.199-15.199,5.199c-5.867,0-16.801-5.066-32.801-15.199l-12.796-8
		C296.535,238.398,284.801,232,270.398,224c-14.398-8-30.664-17.199-48.796-27.602c-18.137-10.398-36.801-21.199-56-32.398
		C120.801,138.398,70.133,109.332,13.602,76.801L13.602,76.801z M672,137.602c9.066-5.868,16.266-8.27,21.602-7.204
		c5.332,1.067,8,5.336,8,12.801v279.199c0,18.137-2,32.403-6,42.801c-4,10.403-9.602,18.266-16.801,23.602
		c-7.199,5.332-15.602,8.664-25.199,10c-9.602,1.332-20,2-31.204,2H88c-18.133,0-32.801-2.403-44-7.199
		c-11.199-4.801-20-10.934-26.398-18.403c-6.403-7.465-10.934-16.133-13.602-26c-2.668-9.867-4-19.867-4-30V150.398
		c0-10.132,2.535-16.531,7.602-19.199c5.066-2.656,11.332-1.32,18.796,4c3.204,2.133,11.336,7.336,24.403,15.602
		c13.066,8.265,27.199,17.066,42.398,26.398c15.199,9.336,29.199,18,42,26c12.801,8,20.535,12.801,23.199,14.403
		c6.403,4.265,9.469,8.664,9.204,13.199c-0.27,4.531-1.735,9.199-4.403,14c-2.133,3.734-5.199,9.867-9.199,18.398
		c-4,8.535-8.266,17.336-12.801,26.403c-4.531,9.066-8.801,17.73-12.801,26c-4,8.265-7.066,14.265-9.199,18
		c-2.133,3.73-2.801,6.933-2,9.597c0.801,2.668,2.133,4.668,4,6c1.867,1.336,4.266,1.735,7.199,1.199
		c2.934-0.531,5.735-2.398,8.403-5.597c1.597-1.602,5.465-6,11.597-13.199c6.137-7.204,12.934-14.934,20.403-23.204
		c7.465-8.265,14.535-16.132,21.199-23.597c6.668-7.469,11.066-12.266,13.199-14.403c2.668-2.664,6.668-5.597,12-8.796
		c5.336-3.204,10.403-3.204,15.199,0c3.204,1.597,8.536,4.796,16,9.597c7.469,4.801,15.469,9.867,24,15.199L296,304
		c8.535,5.332,16,9.867,22.398,13.602c6.403,4.265,12.934,6.933,19.602,8c6.668,1.066,12.934,1.199,18.801,0.398
		s11.332-2,16.398-3.602c5.067-1.597,8.934-3.199,11.602-4.796c2.664-1.602,8.265-4.934,16.801-10
		c8.531-5.067,17.73-10.668,27.597-16.801s19.199-11.867,28-17.199c8.801-5.336,14.801-9.067,18-11.204
		c5.336-3.199,10.133-4.265,14.403-3.199c4.265,1.067,8.531,3.735,12.796,8c1.602,1.602,5.469,6,11.602,13.199
		c6.133,7.204,12.801,15.204,20,24c7.199,8.801,13.867,17.204,20,25.204s10.535,13.597,13.199,16.796
		c2.668,3.204,5.602,4.934,8.801,5.204c3.199,0.265,6-0.536,8.398-2.403c2.403-1.867,4-4.398,4.801-7.597
		c0.801-3.204,0.133-6.668-2-10.403c-1.066-1.597-3.199-6.398-6.398-14.398l-10.403-25.602c-3.73-9.597-7.464-18.801-11.199-27.597
		c-3.734-8.801-6.664-15.067-8.801-18.801c-4.285-8.535-6.55-14.934-6.796-19.199c-0.27-4.27,2.531-8.27,8.398-12
		c1.066-0.536,7.066-4.403,18-11.602c10.934-7.199,23.199-15.066,36.801-23.602c13.597-8.531,26.664-16.796,39.199-24.796
		C658.535,145.602,667.199,140.266,672,137.602L672,137.602z M672,137.602"/>
</g>
</svg>
