<?xml version="1.0" encoding="utf-8"?>
<!-- Generator: Adobe Illustrator 17.0.0, SVG Export Plug-In . SVG Version: 6.00 Build 0)  -->
<!DOCTYPE svg PUBLIC "-//W3C//DTD SVG 1.1//EN" "http://www.w3.org/Graphics/SVG/1.1/DTD/svg11.dtd">
<svg version="1.1" id="图层_1" xmlns="http://www.w3.org/2000/svg" xmlns:xlink="http://www.w3.org/1999/xlink" x="0px" y="0px"
	 width="800.801px" height="700.801px" viewBox="0 0 800.801 700.801" enable-background="new 0 0 800.801 700.801"
	 xml:space="preserve">
<g>
	<path fill="#000" d="M550.398,247.199c11.204,13.336,23.204,26.934,36,40.801c10.668,12.266,22.536,25.867,35.602,40.801
		c13.066,14.933,26.535,30.133,40.398,45.597C680,394.668,694.535,412.801,706,428.801c11.465,16,20.535,30.664,27.199,44
		c6.668,13.332,11.199,25.597,13.602,36.801c2.398,11.199,3.597,22.398,3.597,33.597v52c0,16-2.664,30.403-8,43.199
		c-5.332,12.801-12.664,23.868-22,33.204c-9.332,9.332-20,16.531-32,21.597c-12,5.067-24.664,7.602-38,7.602H156.801
		c-14.403,0-28.133-2.403-41.199-7.199c-13.067-4.801-24.536-11.602-34.403-20.403s-17.734-19.332-23.597-31.597
		c-5.868-12.27-8.801-26.137-8.801-41.602v-61.602c0-12.796,1.199-25.066,3.597-36.796c2.403-11.735,6.801-24,13.204-36.801
		C72,452,80.801,438.266,92,423.602c11.199-14.668,25.332-30.801,42.398-48.403c13.868-14.933,28.137-30,42.801-45.199
		c14.668-15.199,27.867-28.934,39.602-41.199c13.867-14.403,27.199-28.266,40-41.602H550.398L550.398,247.199z M400,550.398
		c13.867,0,26.934-2.664,39.199-8c12.266-5.332,22.934-12.531,32-21.597c9.067-9.067,16.266-19.867,21.602-32.403
		c5.332-12.531,8-25.73,8-39.597c0-13.867-2.668-26.934-8-39.199c-5.336-12.27-12.535-22.934-21.602-32
		c-9.07-9.067-19.734-16.27-32-21.602c-12.265-5.332-25.336-8-39.199-8c-13.867,0-27.066,2.668-39.602,8
		c-12.531,5.332-23.332,12.535-32.398,21.602c-9.066,9.066-16.266,19.73-21.602,32c-5.332,12.265-8,25.332-8,39.199
		c0,13.867,2.668,27.066,8,39.597c5.336,12.536,12.536,23.336,21.602,32.403c9.066,9.066,19.867,16.265,32.398,21.597
		C372.934,547.734,386.133,550.398,400,550.398L400,550.398z M800.801,150.398v50.403c0,13.867-4.934,25.597-14.801,35.199
		c-9.871,9.602-21.734,14.398-35.602,14.398h-100c-13.863,0-25.597-4.796-35.199-14.398c-9.597-9.602-14.398-21.332-14.398-35.199
		v-50.403H200v50.403c0,13.867-4.801,25.597-14.398,35.199c-9.602,9.602-21.336,14.398-35.204,14.398h-100
		c-13.863,0-25.73-4.796-35.597-14.398C4.934,226.398,0,214.668,0,200.801v-50.403v-1.597c0-6.403,1.602-11.867,4.801-16.403
		C8,127.859,12,123.727,16.801,120c4.801-3.742,10.133-7.074,16-10c5.867-2.941,11.734-6.273,17.597-10
		C56.266,96.801,69.465,89.734,90,78.801c20.535-10.938,46.398-22.27,77.602-34C198.801,33.066,234.266,22.668,274,13.602
		C313.734,4.535,356,0,400.801,0C452,0,497.734,4.535,538,13.602c40.266,9.066,75.199,19.464,104.801,31.199
		c29.597,11.734,53.332,23.066,71.199,34c17.867,10.933,30,18,36.398,21.199c6.403,3.734,12.536,7.066,18.403,10
		c5.867,2.934,11.199,6.266,16,10c4.801,3.734,8.664,7.867,11.597,12.398c2.934,4.536,4.403,10,4.403,16.403V150.398
		L800.801,150.398z M800.801,150.398"/>
</g>
</svg>
