<?xml version="1.0" encoding="utf-8"?>
<!-- Generator: Adobe Illustrator 17.0.0, SVG Export Plug-In . SVG Version: 6.00 Build 0)  -->
<!DOCTYPE svg PUBLIC "-//W3C//DTD SVG 1.1//EN" "http://www.w3.org/Graphics/SVG/1.1/DTD/svg11.dtd">
<svg version="1.1" id="图层_1" xmlns="http://www.w3.org/2000/svg" xmlns:xlink="http://www.w3.org/1999/xlink" x="0px" y="0px"
	 width="750.398px" height="751.199px" viewBox="0 0 750.398 751.199" enable-background="new 0 0 750.398 751.199"
	 xml:space="preserve">
<g>
	<path fill="#505050" d="M375.199,0c51.735,0,100.403,9.867,146,29.602c45.602,19.73,85.336,46.531,119.199,80.398
		c33.868,33.867,60.668,73.602,80.403,119.199c19.734,45.602,29.597,94.266,29.597,146c0,52.266-9.863,101.199-29.597,146.801
		c-19.735,45.602-46.535,85.332-80.403,119.199c-33.863,33.867-73.597,60.668-119.199,80.403
		c-45.597,19.73-94.265,29.597-146,29.597c-51.734,0-100.398-9.867-146-29.597c-45.597-19.735-85.332-46.536-119.199-80.403
		C76.133,607.332,49.332,567.602,29.602,522C9.867,476.398,0,427.465,0,375.199c0-51.734,9.867-100.398,29.602-146
		C49.332,183.602,76.133,143.867,110,110c33.867-33.867,73.602-60.668,119.199-80.398C274.801,9.867,323.465,0,375.199,0L375.199,0z
		 M477.602,479.199c1.597-2.133,0.796-4.801-2.403-8C472,468,468.266,464.398,464,460.398c-4.266-4-8-8.132-11.199-12.398
		c-3.199-4.266-4.266-8.266-3.199-12c2.664-8.535,3.597-14.801,2.796-18.801c-0.796-4-3.332-6.664-7.597-8
		c-4.266-1.332-10.403-1.867-18.403-1.597c-8,0.265-17.597,0.398-28.796,0.398c-5.868,0-10.668,0.266-14.403,0.801
		c-3.734,0.531-7.199,0.933-10.398,1.199c-3.199,0.266-6.668,0.535-10.403,0.801c-3.73,0.265-8,0.133-12.796-0.403
		c-7.469-0.531-13.204-1.863-17.204-4c-4-2.132-7.73-4.265-11.199-6.398c-3.465-2.133-7.867-4-13.199-5.602
		c-5.336-1.597-13.066-2.664-23.199-3.199c-14.403-0.531-24.668-1.199-30.801-2c-6.133-0.801-10.535-1.597-13.199-2.398
		c-2.668-0.801-4.801-1.336-6.403-1.602c-1.597-0.265-4.796-0.398-9.597-0.398c-4.801,0.531-12.133,2.933-22,7.199
		c-9.867,4.266-19.867,9.199-30,14.801c-10.133,5.597-18.934,11.332-26.403,17.199c-7.464,5.867-11.199,10.668-11.199,14.398
		c0,10.668,0.668,19.204,2,25.602c1.336,6.398,3.199,11.332,5.602,14.801c2.398,3.465,4.933,6.265,7.597,8.398
		c2.668,2.133,5.336,4.535,8,7.199c2.668,2.668,6.27,4.536,10.801,5.602c4.535,1.07,9.469,1.738,14.801,2
		c5.332,0.27,10.266,0.937,14.801,2c4.531,1.066,8.133,2.934,10.801,5.602c5.332,6.398,10.933,9.066,16.796,8
		c5.868-1.067,11.067-2.801,15.602-5.204c4.535-2.398,8.266-3.332,11.199-2.796c2.934,0.531,4.668,5.597,5.199,15.199
		c0,4.265,0.801,7.465,2.403,9.597c1.597,2.137,3.734,3.735,6.398,4.801l9.602,4.801c3.734,2.133,7.734,5.066,12,8.801
		c4.269,4.265,5.738,8.265,4.398,12c-1.332,3.734-3.332,7.332-6,10.801c-2.664,3.464-5.199,7.199-7.597,11.199
		c-2.403,4-2.27,7.867,0.398,11.597c3.734,5.868,7.734,10.137,12,12.801c4.266,2.668,8.398,4.934,12.398,6.801
		c4,1.867,7.602,4,10.801,6.398c3.199,2.403,5.336,6.27,6.403,11.602c0,1.602,1.863,4.668,5.597,9.199
		c3.735,4.535,7.336,9.199,10.801,14c3.465,4.801,6.266,8.801,8.398,12c2.137,3.199,1.602,4.535-1.597,4
		c6.398,1.067,13.199,1.602,20.398,1.602s11.867-1.336,14-4l1.602-1.602v-0.801l2.398-0.796c1.067-0.536,2.535-1.204,4.403-2
		c1.863-0.801,4.398-2.536,7.597-5.204c6.403-4.265,12.535-9.863,18.403-16.796c5.863-6.934,10.933-14.536,15.199-22.801
		c4.265-8.266,7.867-16.668,10.801-25.199c2.933-8.536,4.933-16.536,6-24c1.066-6.934,2.796-12,5.199-15.204
		c2.398-3.199,4.531-6,6.398-8.398c1.867-2.398,3.469-5.602,4.801-9.602c1.332-4,1.199-10.796-0.398-20.398
		c-1.602-12.266-0.137-21.199,4.398-26.801C470.535,487.602,474.398,482.934,477.602,479.199L477.602,479.199z M556.801,604.801
		c7.465-9.067,11.332-16.535,11.597-22.403c0.27-5.863-6-10.398-18.796-13.597c-13.336-3.199-22.801-4.934-28.403-5.199
		c-5.597-0.27-10.801,2.531-15.597,8.398c-4.801,5.867-8.27,11.867-10.403,18c-2.133,6.133-1.597,14.535,1.602,25.199
		c1.597,4.801,2.933,8.668,4,11.602c1.066,2.933,2.398,4.801,4,5.597c1.597,0.801,4,1.067,7.199,0.801
		c3.199-0.265,7.734-1.199,13.602-2.801c6.398-1.597,12.531-5.332,18.398-11.199C549.867,613.332,554.133,608.535,556.801,604.801
		L556.801,604.801z M578.398,371.199c3.735-3.734,10-6.531,18.801-8.398c8.801-1.867,17.735-4.266,26.801-7.199
		c9.066-2.934,17.066-7.067,24-12.403c6.945-5.332,10.676-12.801,11.199-22.398c0.535-9.602,0.535-18.403,0-26.403
		c-0.531-8-2.133-16-4.801-24c-2.664-8-6.265-16.398-10.796-25.199c-4.536-8.801-10.27-18.801-17.204-30
		c-7.464-11.734-14.265-21.597-20.398-29.597c-6.133-8-12.133-14.801-18-20.403c-5.867-5.597-12-10.664-18.398-15.199
		c-6.403-4.535-13.602-9.199-21.602-14c-8.535-4.801-16.934-10-25.199-15.602c-8.266-5.597-17.199-9.332-26.801-11.199
		c-9.602-1.867-20-0.664-31.199,3.602c-11.199,4.265-24,13.597-38.403,28l-13.597,14.398c-5.867,5.336-12,10.403-18.403,15.199
		c-6.398,4.801-12.531,8.934-18.398,12.403c-5.867,3.465-11.199,5.199-16,5.199c-4.266,0-10.934,0.535-20,1.602
		c-9.066,1.07-18.266,3.738-27.602,8c-9.332,4.265-17.332,10.265-24,18c-6.664,7.73-9.464,18-8.398,30.796
		c0.535,14.403,3.066,23.735,7.602,28c4.531,4.27,10.398,6.668,17.597,7.204c7.199,0.539,15.735,1.07,25.602,1.597
		c9.867,0.535,20.398,4,31.597,10.403c13.336,3.199,25.872,6.398,37.602,9.597c10.133,2.668,20.398,6,30.801,10
		c10.398,4,19.066,8.133,26,12.403c8,4.796,11.199,11.066,9.597,18.796C464.801,352.133,462,360,458,368
		c-4,8-7.332,15.734-10,23.199c-2.668,7.469-1.066,13.336,4.801,17.602c8,5.867,13.867,9.597,17.597,11.199
		c3.735,1.602,7.735,2,12,1.199c4.27-0.801,10.137-2,17.602-3.597c7.465-1.602,18.934-2.403,34.398-2.403
		c-4.265,0-5.066-1.597-2.398-4.801c2.668-3.199,6.801-7.199,12.398-12c5.602-4.796,11.602-9.73,18-14.796
		C568.801,378.535,574.133,374.398,578.398,371.199L578.398,371.199z M578.398,371.199"/>
</g>
</svg>
